# MagicaVoxel @ Ephtracy

# group
o 

# material
mtllib Plantilla-v1-Characters-1.mtl
usemtl palette

# normals
vn -1 0 0
vn 1 0 0
vn 0 0 1
vn 0 0 -1
vn 0 -1 0
vn 0 1 0

# texcoords
vt 0.0605469 0.5
vt 0.115234 0.5
vt 0.396484 0.5
vt 0.958984 0.5
vt 0.982422 0.5
vt 0.994141 0.5

# verts
v 16.8 0.5 6.4
v 16.8 0.5 6.1
v 16.8 0.6 6.5
v 16.8 0.6 6.4
v 16.8 0.7 6.6
v 16.8 0.7 6.5
v 16.8 0.8 6.7
v 16.8 0.8 6.6
v 16.8 1 6.7
v 16.8 1 6.6
v 16.8 1 6.2
v 16.8 1 6.1
v 16.8 1.1 6.6
v 16.8 1.1 6.2
v 16.9 0.2 6.5
v 16.9 0.2 6.4
v 16.9 0.3 6.5
v 16.9 0.3 6.4
v 16.9 0.4 6.3
v 16.9 0.4 6.1
v 16.9 0.5 6.8
v 16.9 0.5 6.7
v 16.9 0.5 6.6
v 16.9 0.5 6.5
v 16.9 0.5 6.4
v 16.9 0.5 6.3
v 16.9 0.5 6.1
v 16.9 0.6 6.8
v 16.9 0.6 6.7
v 16.9 0.6 6.6
v 16.9 0.6 6.5
v 16.9 0.6 6.4
v 16.9 0.7 6.6
v 16.9 0.7 6.5
v 16.9 0.8 6.7
v 16.9 0.8 6.6
v 16.9 0.9 6.8
v 16.9 0.9 6.7
v 16.9 1 6.8
v 16.9 1 6.7
v 16.9 1 6.6
v 16.9 1 6.2
v 16.9 1 6.1
v 16.9 1.1 6.7
v 16.9 1.1 6.6
v 16.9 1.1 6.2
v 16.9 1.1 6.1
v 16.9 1.2 6.6
v 16.9 1.2 6.2
v 17 0 6.5
v 17 0 6.4
v 17 0.1 6.6
v 17 0.1 6.5
v 17 0.1 6.4
v 17 0.1 6.3
v 17 0.2 6.5
v 17 0.2 6.4
v 17 0.3 6.5
v 17 0.3 6.4
v 17 0.4 6.8
v 17 0.4 6.7
v 17 0.4 6.6
v 17 0.4 6.3
v 17 0.5 6.8
v 17 0.5 6.7
v 17 0.5 6.6
v 17 0.5 6.5
v 17 0.5 6.4
v 17 0.5 6.3
v 17.1 0.3 6.8
v 17.1 0.3 6.7
v 17.1 0.4 6.8
v 17.1 0.4 6.7
v 17.2 0 6.5
v 17.2 0 6.4
v 17.2 0.1 6.5
v 17.2 0.1 6.4
v 17.2 0.2 6.5
v 17.2 0.2 6.4
v 17.1 0 6.5
v 17.1 0 6.4
v 17.1 0.1 6.5
v 17.1 0.1 6.4
v 17.1 0.2 6.5
v 17.1 0.2 6.4
v 17.2 0.3 6.8
v 17.2 0.3 6.7
v 17.2 0.4 6.8
v 17.2 0.4 6.7
v 17.3 0 6.5
v 17.3 0 6.4
v 17.3 0.1 6.6
v 17.3 0.1 6.5
v 17.3 0.1 6.4
v 17.3 0.1 6.3
v 17.3 0.2 6.5
v 17.3 0.2 6.4
v 17.3 0.3 6.5
v 17.3 0.3 6.4
v 17.3 0.4 6.8
v 17.3 0.4 6.7
v 17.3 0.4 6.6
v 17.3 0.4 6.3
v 17.3 0.5 6.8
v 17.3 0.5 6.7
v 17.3 0.5 6.6
v 17.3 0.5 6.5
v 17.3 0.5 6.4
v 17.3 0.5 6.3
v 17.4 0.2 6.5
v 17.4 0.2 6.4
v 17.4 0.3 6.5
v 17.4 0.3 6.4
v 17.4 0.4 6.3
v 17.4 0.4 6.1
v 17.4 0.5 6.8
v 17.4 0.5 6.6
v 17.4 0.5 6.5
v 17.4 0.5 6.4
v 17.4 0.5 6.3
v 17.4 0.5 6.1
v 17.4 0.6 6.8
v 17.4 0.6 6.7
v 17.4 0.6 6.6
v 17.4 0.6 6.5
v 17.4 0.6 6.4
v 17.4 0.7 6.6
v 17.4 0.7 6.5
v 17.4 0.8 6.7
v 17.4 0.8 6.6
v 17.4 0.9 6.8
v 17.4 0.9 6.7
v 17.4 1 6.8
v 17.4 1 6.7
v 17.4 1 6.6
v 17.4 1 6.2
v 17.4 1 6.1
v 17.4 1.1 6.7
v 17.4 1.1 6.6
v 17.4 1.1 6.2
v 17.4 1.1 6.1
v 17.4 1.2 6.6
v 17.4 1.2 6.2
v 17.5 0.5 6.4
v 17.5 0.5 6.1
v 17.5 0.6 6.5
v 17.5 0.6 6.4
v 17.5 0.7 6.6
v 17.5 0.7 6.5
v 17.5 0.8 6.7
v 17.5 0.8 6.6
v 17.5 1 6.7
v 17.5 1 6.6
v 17.5 1 6.2
v 17.5 1 6.1
v 17.5 1.1 6.6
v 17.5 1.1 6.2
v 16.9 0.5 6.8
v 16.9 0.6 6.8
v 16.9 0.9 6.8
v 16.9 1 6.8
v 17 0.4 6.8
v 17 0.5 6.8
v 17.1 0.3 6.8
v 17.1 0.4 6.8
v 17.2 0.3 6.8
v 17.2 0.4 6.8
v 17.3 0.4 6.8
v 17.3 0.5 6.8
v 17.4 0.5 6.8
v 17.4 0.6 6.8
v 17.4 0.9 6.8
v 17.4 1 6.8
v 16.8 0.8 6.7
v 16.8 1 6.7
v 16.9 0.6 6.7
v 16.9 0.8 6.7
v 16.9 0.9 6.7
v 16.9 1 6.7
v 16.9 1.1 6.7
v 17 0.6 6.7
v 17 0.8 6.7
v 17.1 0.6 6.7
v 17.1 0.8 6.7
v 17.2 0.6 6.7
v 17.2 0.8 6.7
v 17.3 0.6 6.7
v 17.3 0.8 6.7
v 17.4 0.6 6.7
v 17.4 0.8 6.7
v 17.4 0.9 6.7
v 17.4 1 6.7
v 17.4 1.1 6.7
v 17.5 0.8 6.7
v 17.5 1 6.7
v 16.8 0.7 6.6
v 16.8 0.8 6.6
v 16.8 1 6.6
v 16.8 1.1 6.6
v 16.9 0.7 6.6
v 16.9 0.8 6.6
v 16.9 1 6.6
v 16.9 1.1 6.6
v 16.9 1.2 6.6
v 17 0.1 6.6
v 17 0.4 6.6
v 17.3 0.1 6.6
v 17.3 0.4 6.6
v 17.4 0.7 6.6
v 17.4 0.8 6.6
v 17.4 1 6.6
v 17.4 1.1 6.6
v 17.4 1.2 6.6
v 17.5 0.7 6.6
v 17.5 0.8 6.6
v 17.5 1 6.6
v 17.5 1.1 6.6
v 16.8 0.6 6.5
v 16.8 0.7 6.5
v 16.9 0.2 6.5
v 16.9 0.3 6.5
v 16.9 0.5 6.5
v 16.9 0.6 6.5
v 16.9 0.7 6.5
v 17 0 6.5
v 17 0.1 6.5
v 17 0.2 6.5
v 17 0.3 6.5
v 17 0.5 6.5
v 17.1 0 6.5
v 17.1 0.1 6.5
v 17.2 0 6.5
v 17.2 0.1 6.5
v 17.3 0 6.5
v 17.3 0.1 6.5
v 17.3 0.2 6.5
v 17.3 0.3 6.5
v 17.3 0.5 6.5
v 17.4 0.2 6.5
v 17.4 0.3 6.5
v 17.4 0.5 6.5
v 17.4 0.6 6.5
v 17.4 0.7 6.5
v 17.5 0.6 6.5
v 17.5 0.7 6.5
v 16.8 0.5 6.4
v 16.8 0.6 6.4
v 16.9 0.5 6.4
v 16.9 0.6 6.4
v 17.1 0.1 6.4
v 17.1 0.2 6.4
v 17.2 0.1 6.4
v 17.2 0.2 6.4
v 17.4 0.5 6.4
v 17.4 0.6 6.4
v 17.5 0.5 6.4
v 17.5 0.6 6.4
v 16.9 0.4 6.3
v 16.9 0.5 6.3
v 17 0.4 6.3
v 17 0.5 6.3
v 17.3 0.4 6.3
v 17.3 0.5 6.3
v 17.4 0.4 6.3
v 17.4 0.5 6.3
v 17.1 0.3 6.7
v 17.1 0.4 6.7
v 17.2 0.3 6.7
v 17.2 0.4 6.7
v 17.1 0.1 6.5
v 17.1 0.2 6.5
v 17.2 0.1 6.5
v 17.2 0.2 6.5
v 16.9 0.2 6.4
v 16.9 0.3 6.4
v 16.9 0.5 6.4
v 17 0 6.4
v 17 0.1 6.4
v 17 0.2 6.4
v 17 0.3 6.4
v 17 0.5 6.4
v 17.1 0 6.4
v 17.1 0.1 6.4
v 17.2 0 6.4
v 17.2 0.1 6.4
v 17.3 0 6.4
v 17.3 0.1 6.4
v 17.3 0.2 6.4
v 17.3 0.3 6.4
v 17.3 0.5 6.4
v 17.4 0.2 6.4
v 17.4 0.3 6.4
v 17.4 0.5 6.4
v 17 0.1 6.3
v 17 0.4 6.3
v 17.3 0.1 6.3
v 17.3 0.4 6.3
v 16.8 1 6.2
v 16.8 1.1 6.2
v 16.9 1 6.2
v 16.9 1.1 6.2
v 16.9 1.2 6.2
v 17.4 1 6.2
v 17.4 1.1 6.2
v 17.4 1.2 6.2
v 17.5 1 6.2
v 17.5 1.1 6.2
v 16.8 0.5 6.1
v 16.8 1 6.1
v 16.9 0.4 6.1
v 16.9 0.5 6.1
v 16.9 1 6.1
v 16.9 1.1 6.1
v 17.4 0.4 6.1
v 17.4 0.5 6.1
v 17.4 1 6.1
v 17.4 1.1 6.1
v 17.5 0.5 6.1
v 17.5 1 6.1
v 17 0 6.5
v 17.1 0 6.5
v 17.2 0 6.5
v 17.3 0 6.5
v 17 0 6.4
v 17.1 0 6.4
v 17.2 0 6.4
v 17.3 0 6.4
v 17 0.1 6.6
v 17.3 0.1 6.6
v 17 0.1 6.5
v 17.1 0.1 6.5
v 17.2 0.1 6.5
v 17.3 0.1 6.5
v 17 0.1 6.4
v 17.1 0.1 6.4
v 17.2 0.1 6.4
v 17.3 0.1 6.4
v 17 0.1 6.3
v 17.3 0.1 6.3
v 16.9 0.2 6.5
v 17 0.2 6.5
v 17.1 0.2 6.5
v 17.2 0.2 6.5
v 17.3 0.2 6.5
v 17.4 0.2 6.5
v 16.9 0.2 6.4
v 17 0.2 6.4
v 17.1 0.2 6.4
v 17.2 0.2 6.4
v 17.3 0.2 6.4
v 17.4 0.2 6.4
v 17.1 0.3 6.8
v 17.2 0.3 6.8
v 17.1 0.3 6.7
v 17.2 0.3 6.7
v 17 0.4 6.8
v 17.1 0.4 6.8
v 17.2 0.4 6.8
v 17.3 0.4 6.8
v 17 0.4 6.7
v 17.1 0.4 6.7
v 17.2 0.4 6.7
v 17.3 0.4 6.7
v 17 0.4 6.6
v 17.3 0.4 6.6
v 16.9 0.4 6.3
v 17 0.4 6.3
v 17.3 0.4 6.3
v 17.4 0.4 6.3
v 16.9 0.4 6.1
v 17.4 0.4 6.1
v 16.9 0.5 6.8
v 17 0.5 6.8
v 17.3 0.5 6.8
v 17.4 0.5 6.8
v 16.9 0.5 6.7
v 17 0.5 6.7
v 17.3 0.5 6.7
v 16.9 0.5 6.6
v 17 0.5 6.6
v 17.3 0.5 6.6
v 17.4 0.5 6.6
v 16.9 0.5 6.5
v 17 0.5 6.5
v 17.3 0.5 6.5
v 17.4 0.5 6.5
v 16.8 0.5 6.4
v 16.9 0.5 6.4
v 17 0.5 6.4
v 17.3 0.5 6.4
v 17.4 0.5 6.4
v 17.5 0.5 6.4
v 16.9 0.5 6.3
v 17 0.5 6.3
v 17.3 0.5 6.3
v 17.4 0.5 6.3
v 16.8 0.5 6.1
v 16.9 0.5 6.1
v 17.4 0.5 6.1
v 17.5 0.5 6.1
v 16.8 0.6 6.5
v 16.9 0.6 6.5
v 17.4 0.6 6.5
v 17.5 0.6 6.5
v 16.8 0.6 6.4
v 16.9 0.6 6.4
v 17.4 0.6 6.4
v 17.5 0.6 6.4
v 16.8 0.7 6.6
v 16.9 0.7 6.6
v 17.4 0.7 6.6
v 17.5 0.7 6.6
v 16.8 0.7 6.5
v 16.9 0.7 6.5
v 17.4 0.7 6.5
v 17.5 0.7 6.5
v 16.8 0.8 6.7
v 16.9 0.8 6.7
v 17.4 0.8 6.7
v 17.5 0.8 6.7
v 16.8 0.8 6.6
v 16.9 0.8 6.6
v 17.4 0.8 6.6
v 17.5 0.8 6.6
v 16.9 0.9 6.8
v 17.4 0.9 6.8
v 16.9 0.9 6.7
v 17.4 0.9 6.7
v 16.9 0.6 6.8
v 17.4 0.6 6.8
v 16.9 0.6 6.7
v 17 0.6 6.7
v 17.1 0.6 6.7
v 17.2 0.6 6.7
v 17.3 0.6 6.7
v 17.4 0.6 6.7
v 16.9 1 6.8
v 17.4 1 6.8
v 16.8 1 6.7
v 16.9 1 6.7
v 17.4 1 6.7
v 17.5 1 6.7
v 16.8 1 6.6
v 16.9 1 6.6
v 17.4 1 6.6
v 17.5 1 6.6
v 16.8 1 6.2
v 16.9 1 6.2
v 17.4 1 6.2
v 17.5 1 6.2
v 16.8 1 6.1
v 16.9 1 6.1
v 17.4 1 6.1
v 17.5 1 6.1
v 16.9 1.1 6.7
v 17.4 1.1 6.7
v 16.8 1.1 6.6
v 16.9 1.1 6.6
v 17.4 1.1 6.6
v 17.5 1.1 6.6
v 16.8 1.1 6.2
v 16.9 1.1 6.2
v 17.4 1.1 6.2
v 17.5 1.1 6.2
v 16.9 1.1 6.1
v 17.4 1.1 6.1
v 16.9 1.2 6.6
v 17.4 1.2 6.6
v 16.9 1.2 6.2
v 17.4 1.2 6.2

# faces
f 4/2/1 2/2/1 1/2/1
f 6/2/1 4/2/1 3/2/1
f 8/2/1 6/2/1 5/2/1
f 9/2/1 8/2/1 7/2/1
f 10/2/1 6/2/1 8/2/1
f 10/2/1 8/2/1 9/2/1
f 11/2/1 2/2/1 4/2/1
f 11/2/1 6/2/1 10/2/1
f 11/2/1 4/2/1 6/2/1
f 12/2/1 2/2/1 11/2/1
f 13/2/1 11/2/1 10/2/1
f 14/2/1 11/2/1 13/2/1
f 17/1/1 16/1/1 15/1/1
f 18/1/1 16/1/1 17/1/1
f 24/2/1 18/2/1 17/2/1
f 25/2/1 18/2/1 24/2/1
f 26/2/1 20/2/1 19/2/1
f 27/2/1 20/2/1 26/2/1
f 28/3/1 22/3/1 21/3/1
f 29/5/1 23/5/1 22/5/1
f 29/3/1 22/3/1 28/3/1
f 30/1/1 25/1/1 24/1/1
f 30/5/1 23/5/1 29/5/1
f 30/1/1 24/1/1 23/1/1
f 31/1/1 25/1/1 30/1/1
f 32/1/1 25/1/1 31/1/1
f 33/1/1 30/1/1 29/1/1
f 33/1/1 31/1/1 30/1/1
f 34/1/1 31/1/1 33/1/1
f 35/1/1 33/1/1 29/1/1
f 36/1/1 33/1/1 35/1/1
f 39/2/1 38/2/1 37/2/1
f 40/2/1 38/2/1 39/2/1
f 44/2/1 41/2/1 40/2/1
f 45/2/1 41/2/1 44/2/1
f 46/2/1 43/2/1 42/2/1
f 47/2/1 43/2/1 46/2/1
f 48/2/1 46/2/1 45/2/1
f 49/2/1 46/2/1 48/2/1
f 53/6/1 51/6/1 50/6/1
f 54/6/1 51/6/1 53/6/1
f 56/2/1 53/2/1 52/2/1
f 56/2/1 55/2/1 54/2/1
f 56/2/1 54/2/1 53/2/1
f 57/2/1 55/2/1 56/2/1
f 58/2/1 56/2/1 52/2/1
f 59/2/1 55/2/1 57/2/1
f 62/2/1 58/2/1 52/2/1
f 63/2/1 55/2/1 59/2/1
f 64/3/1 61/3/1 60/3/1
f 65/5/1 62/5/1 61/5/1
f 65/3/1 61/3/1 64/3/1
f 66/2/1 58/2/1 62/2/1
f 66/5/1 62/5/1 65/5/1
f 67/2/1 58/2/1 66/2/1
f 68/2/1 63/2/1 59/2/1
f 69/2/1 63/2/1 68/2/1
f 72/3/1 71/3/1 70/3/1
f 73/3/1 71/3/1 72/3/1
f 76/6/1 75/6/1 74/6/1
f 77/6/1 75/6/1 76/6/1
f 78/2/1 77/2/1 76/2/1
f 79/2/1 77/2/1 78/2/1
f 80/6/2 81/6/2 82/6/2
f 82/6/2 81/6/2 83/6/2
f 82/2/2 83/2/2 84/2/2
f 84/2/2 83/2/2 85/2/2
f 86/3/2 87/3/2 88/3/2
f 88/3/2 87/3/2 89/3/2
f 90/6/2 91/6/2 93/6/2
f 93/6/2 91/6/2 94/6/2
f 92/2/2 93/2/2 96/2/2
f 94/2/2 95/2/2 96/2/2
f 93/2/2 94/2/2 96/2/2
f 96/2/2 95/2/2 97/2/2
f 92/2/2 96/2/2 98/2/2
f 97/2/2 95/2/2 99/2/2
f 92/2/2 98/2/2 102/2/2
f 99/2/2 95/2/2 103/2/2
f 100/3/2 101/3/2 104/3/2
f 101/5/2 102/5/2 105/5/2
f 104/3/2 101/3/2 105/3/2
f 102/2/2 98/2/2 106/2/2
f 105/5/2 102/5/2 106/5/2
f 106/2/2 98/2/2 107/2/2
f 99/2/2 103/2/2 108/2/2
f 108/2/2 103/2/2 109/2/2
f 110/1/2 111/1/2 112/1/2
f 112/1/2 111/1/2 113/1/2
f 112/2/2 113/2/2 118/2/2
f 118/2/2 113/2/2 119/2/2
f 114/2/2 115/2/2 120/2/2
f 120/2/2 115/2/2 121/2/2
f 116/3/2 117/3/2 122/3/2
f 122/3/2 117/3/2 123/3/2
f 118/1/2 119/1/2 124/1/2
f 123/3/2 117/3/2 124/3/2
f 117/1/2 118/1/2 124/1/2
f 124/1/2 119/1/2 125/1/2
f 125/1/2 119/1/2 126/1/2
f 123/1/2 124/1/2 127/1/2
f 124/1/2 125/1/2 127/1/2
f 127/1/2 125/1/2 128/1/2
f 123/1/2 127/1/2 129/1/2
f 129/1/2 127/1/2 130/1/2
f 131/2/2 132/2/2 133/2/2
f 133/2/2 132/2/2 134/2/2
f 134/2/2 135/2/2 138/2/2
f 138/2/2 135/2/2 139/2/2
f 136/2/2 137/2/2 140/2/2
f 140/2/2 137/2/2 141/2/2
f 139/2/2 140/2/2 142/2/2
f 142/2/2 140/2/2 143/2/2
f 144/2/2 145/2/2 147/2/2
f 146/2/2 147/2/2 149/2/2
f 148/2/2 149/2/2 151/2/2
f 150/2/2 151/2/2 152/2/2
f 151/2/2 149/2/2 153/2/2
f 152/2/2 151/2/2 153/2/2
f 147/2/2 145/2/2 154/2/2
f 153/2/2 149/2/2 154/2/2
f 149/2/2 147/2/2 154/2/2
f 154/2/2 145/2/2 155/2/2
f 153/2/2 154/2/2 156/2/2
f 156/2/2 154/2/2 157/2/2
f 163/3/3 159/3/3 158/3/3
f 165/3/3 163/3/3 162/3/3
f 166/3/3 165/3/3 164/3/3
f 167/3/3 163/3/3 165/3/3
f 167/3/3 165/3/3 166/3/3
f 168/3/3 163/3/3 167/3/3
f 169/3/3 159/3/3 163/3/3
f 169/3/3 163/3/3 168/3/3
f 170/3/3 159/3/3 169/3/3
f 171/3/3 159/3/3 170/3/3
f 172/2/3 161/2/3 160/2/3
f 173/2/3 161/2/3 172/2/3
f 177/2/3 175/2/3 174/2/3
f 178/2/3 175/2/3 177/2/3
f 179/2/3 175/2/3 178/2/3
f 181/1/3 177/1/3 176/1/3
f 181/1/3 178/1/3 177/1/3
f 182/1/3 178/1/3 181/1/3
f 183/6/3 182/6/3 181/6/3
f 184/1/3 178/1/3 182/1/3
f 184/6/3 182/6/3 183/6/3
f 185/1/3 184/1/3 183/1/3
f 186/1/3 178/1/3 184/1/3
f 186/1/3 184/1/3 185/1/3
f 187/6/3 186/6/3 185/6/3
f 188/1/3 178/1/3 186/1/3
f 188/6/3 186/6/3 187/6/3
f 189/1/3 188/1/3 187/1/3
f 190/1/3 178/1/3 188/1/3
f 190/1/3 188/1/3 189/1/3
f 191/1/3 178/1/3 190/1/3
f 192/2/3 180/2/3 179/2/3
f 193/2/3 180/2/3 192/2/3
f 194/2/3 191/2/3 190/2/3
f 194/2/3 192/2/3 191/2/3
f 195/2/3 192/2/3 194/2/3
f 200/2/3 197/2/3 196/2/3
f 201/2/3 197/2/3 200/2/3
f 202/2/3 199/2/3 198/2/3
f 203/2/3 199/2/3 202/2/3
f 207/2/3 206/2/3 205/2/3
f 208/2/3 206/2/3 207/2/3
f 212/2/3 204/2/3 203/2/3
f 213/2/3 204/2/3 212/2/3
f 214/2/3 210/2/3 209/2/3
f 215/2/3 210/2/3 214/2/3
f 216/2/3 212/2/3 211/2/3
f 217/2/3 212/2/3 216/2/3
f 223/2/3 219/2/3 218/2/3
f 224/2/3 219/2/3 223/2/3
f 227/1/3 221/1/3 220/1/3
f 228/2/3 222/2/3 221/2/3
f 228/1/3 221/1/3 227/1/3
f 229/2/3 222/2/3 228/2/3
f 230/6/3 226/6/3 225/6/3
f 231/6/3 226/6/3 230/6/3
f 234/6/3 233/6/3 232/6/3
f 235/6/3 233/6/3 234/6/3
f 239/1/3 237/1/3 236/1/3
f 240/2/3 238/2/3 237/2/3
f 240/1/3 237/1/3 239/1/3
f 241/2/3 238/2/3 240/2/3
f 244/2/3 243/2/3 242/2/3
f 245/2/3 243/2/3 244/2/3
f 248/2/3 247/2/3 246/2/3
f 249/2/3 247/2/3 248/2/3
f 252/2/3 251/2/3 250/2/3
f 253/2/3 251/2/3 252/2/3
f 256/2/3 255/2/3 254/2/3
f 257/2/3 255/2/3 256/2/3
f 260/2/3 259/2/3 258/2/3
f 261/2/3 259/2/3 260/2/3
f 264/2/3 263/2/3 262/2/3
f 265/2/3 263/2/3 264/2/3
f 266/3/4 267/3/4 268/3/4
f 268/3/4 267/3/4 269/3/4
f 270/2/4 271/2/4 272/2/4
f 272/2/4 271/2/4 273/2/4
f 274/1/4 275/1/4 279/1/4
f 275/2/4 276/2/4 280/2/4
f 279/1/4 275/1/4 280/1/4
f 280/2/4 276/2/4 281/2/4
f 277/6/4 278/6/4 282/6/4
f 282/6/4 278/6/4 283/6/4
f 284/6/4 285/6/4 286/6/4
f 286/6/4 285/6/4 287/6/4
f 288/1/4 289/1/4 291/1/4
f 289/2/4 290/2/4 292/2/4
f 291/1/4 289/1/4 292/1/4
f 292/2/4 290/2/4 293/2/4
f 294/2/4 295/2/4 296/2/4
f 296/2/4 295/2/4 297/2/4
f 298/2/4 299/2/4 300/2/4
f 300/2/4 299/2/4 301/2/4
f 301/2/4 302/2/4 304/2/4
f 304/2/4 302/2/4 305/2/4
f 303/2/4 304/2/4 306/2/4
f 306/2/4 304/2/4 307/2/4
f 308/2/4 309/2/4 311/2/4
f 311/2/4 309/2/4 312/2/4
f 310/2/4 311/2/4 314/2/4
f 312/2/4 313/2/4 314/2/4
f 311/2/4 312/2/4 314/2/4
f 314/2/4 313/2/4 315/2/4
f 315/2/4 313/2/4 316/2/4
f 316/2/4 313/2/4 317/2/4
f 315/2/4 316/2/4 318/2/4
f 318/2/4 316/2/4 319/2/4
f 324/6/5 321/6/5 320/6/5
f 325/6/5 321/6/5 324/6/5
f 326/6/5 323/6/5 322/6/5
f 327/6/5 323/6/5 326/6/5
f 330/2/5 329/2/5 328/2/5
f 331/2/5 329/2/5 330/2/5
f 332/2/5 329/2/5 331/2/5
f 333/2/5 329/2/5 332/2/5
f 338/2/5 335/2/5 334/2/5
f 338/2/5 337/2/5 336/2/5
f 338/2/5 336/2/5 335/2/5
f 339/2/5 337/2/5 338/2/5
f 346/1/5 341/1/5 340/1/5
f 347/1/5 341/1/5 346/1/5
f 348/1/5 343/1/5 342/1/5
f 349/1/5 343/1/5 348/1/5
f 350/1/5 345/1/5 344/1/5
f 351/1/5 345/1/5 350/1/5
f 354/3/5 353/3/5 352/3/5
f 355/3/5 353/3/5 354/3/5
f 360/3/5 357/3/5 356/3/5
f 361/3/5 357/3/5 360/3/5
f 362/3/5 359/3/5 358/3/5
f 363/3/5 359/3/5 362/3/5
f 364/5/5 361/5/5 360/5/5
f 364/5/5 362/5/5 361/5/5
f 364/5/5 363/5/5 362/5/5
f 365/5/5 363/5/5 364/5/5
f 370/2/5 368/2/5 367/2/5
f 370/2/5 369/2/5 368/2/5
f 370/2/5 367/2/5 366/2/5
f 371/2/5 369/2/5 370/2/5
f 376/3/5 373/3/5 372/3/5
f 377/3/5 373/3/5 376/3/5
f 378/3/5 375/3/5 374/3/5
f 379/5/5 377/5/5 376/5/5
f 380/5/5 377/5/5 379/5/5
f 381/3/5 375/3/5 378/3/5
f 382/3/5 375/3/5 381/3/5
f 383/1/5 380/1/5 379/1/5
f 384/1/5 380/1/5 383/1/5
f 385/1/5 382/1/5 381/1/5
f 386/1/5 382/1/5 385/1/5
f 393/1/5 389/1/5 388/1/5
f 393/2/5 388/2/5 387/2/5
f 394/1/5 389/1/5 393/1/5
f 395/1/5 391/1/5 390/1/5
f 396/2/5 392/2/5 391/2/5
f 396/1/5 391/1/5 395/1/5
f 397/2/5 393/2/5 387/2/5
f 398/2/5 393/2/5 397/2/5
f 399/2/5 392/2/5 396/2/5
f 400/2/5 392/2/5 399/2/5
f 405/2/5 402/2/5 401/2/5
f 406/2/5 402/2/5 405/2/5
f 407/2/5 404/2/5 403/2/5
f 408/2/5 404/2/5 407/2/5
f 413/2/5 410/2/5 409/2/5
f 414/2/5 410/2/5 413/2/5
f 415/2/5 412/2/5 411/2/5
f 416/2/5 412/2/5 415/2/5
f 421/2/5 418/2/5 417/2/5
f 422/2/5 418/2/5 421/2/5
f 423/2/5 420/2/5 419/2/5
f 424/2/5 420/2/5 423/2/5
f 427/2/5 426/2/5 425/2/5
f 428/2/5 426/2/5 427/2/5
f 429/3/6 430/3/6 431/3/6
f 431/3/6 430/3/6 432/3/6
f 432/3/6 430/3/6 433/3/6
f 433/3/6 430/3/6 434/3/6
f 434/3/6 430/3/6 435/3/6
f 435/3/6 430/3/6 436/3/6
f 437/2/6 438/2/6 440/2/6
f 440/2/6 438/2/6 441/2/6
f 439/2/6 440/2/6 443/2/6
f 443/2/6 440/2/6 444/2/6
f 441/2/6 442/2/6 445/2/6
f 445/2/6 442/2/6 446/2/6
f 447/2/6 448/2/6 451/2/6
f 451/2/6 448/2/6 452/2/6
f 449/2/6 450/2/6 453/2/6
f 453/2/6 450/2/6 454/2/6
f 455/2/6 456/2/6 458/2/6
f 458/2/6 456/2/6 459/2/6
f 457/2/6 458/2/6 461/2/6
f 461/2/6 458/2/6 462/2/6
f 459/2/6 460/2/6 463/2/6
f 463/2/6 460/2/6 464/2/6
f 462/2/6 463/2/6 465/2/6
f 465/2/6 463/2/6 466/2/6
f 467/2/6 468/2/6 469/2/6
f 469/2/6 468/2/6 470/2/6
